<svg width="1128" height="269" viewBox="0 0 1128 269" fill="none" xmlns="http://www.w3.org/2000/svg">
<path d="M161.4 110.4L127.2 220H108.4L82 133L55.6 220H36.8L2.4 110.4H21L46.2 202.4L73.4 110.4H92L118.6 202.6L143.4 110.4H161.4ZM279.463 161C279.463 164.467 279.263 168.133 278.863 172H191.263C191.929 182.8 195.596 191.267 202.263 197.4C209.063 203.4 217.263 206.4 226.863 206.4C234.729 206.4 241.263 204.6 246.463 201C251.796 197.267 255.529 192.333 257.663 186.2H277.263C274.329 196.733 268.463 205.333 259.663 212C250.863 218.533 239.929 221.8 226.863 221.8C216.463 221.8 207.129 219.467 198.863 214.8C190.729 210.133 184.329 203.533 179.663 195C174.996 186.333 172.663 176.333 172.663 165C172.663 153.667 174.929 143.733 179.463 135.2C183.996 126.667 190.329 120.133 198.463 115.6C206.729 110.933 216.196 108.6 226.863 108.6C237.263 108.6 246.463 110.867 254.463 115.4C262.463 119.933 268.596 126.2 272.863 134.2C277.263 142.067 279.463 151 279.463 161ZM260.663 157.2C260.663 150.267 259.129 144.333 256.063 139.4C252.996 134.333 248.796 130.533 243.463 128C238.263 125.333 232.463 124 226.063 124C216.863 124 208.996 126.933 202.463 132.8C196.063 138.667 192.396 146.8 191.463 157.2H260.663ZM296.686 164.8C296.686 153.6 298.953 143.8 303.486 135.4C308.019 126.867 314.219 120.267 322.086 115.6C330.086 110.933 338.953 108.6 348.686 108.6C358.286 108.6 366.619 110.667 373.686 114.8C380.753 118.933 386.019 124.133 389.486 130.4V110.4H407.886V220H389.486V199.6C385.886 206 380.486 211.333 373.286 215.6C366.219 219.733 357.953 221.8 348.486 221.8C338.753 221.8 329.953 219.4 322.086 214.6C314.219 209.8 308.019 203.067 303.486 194.4C298.953 185.733 296.686 175.867 296.686 164.8ZM389.486 165C389.486 156.733 387.819 149.533 384.486 143.4C381.153 137.267 376.619 132.6 370.886 129.4C365.286 126.067 359.086 124.4 352.286 124.4C345.486 124.4 339.286 126 333.686 129.2C328.086 132.4 323.619 137.067 320.286 143.2C316.953 149.333 315.286 156.533 315.286 164.8C315.286 173.2 316.953 180.533 320.286 186.8C323.619 192.933 328.086 197.667 333.686 201C339.286 204.2 345.486 205.8 352.286 205.8C359.086 205.8 365.286 204.2 370.886 201C376.619 197.667 381.153 192.933 384.486 186.8C387.819 180.533 389.486 173.267 389.486 165ZM456.842 72V220H438.642V72H456.842ZM510.061 125.4V190C510.061 195.333 511.194 199.133 513.461 201.4C515.728 203.533 519.661 204.6 525.261 204.6H538.661V220H522.261C512.128 220 504.528 217.667 499.461 213C494.394 208.333 491.861 200.667 491.861 190V125.4H477.661V110.4H491.861V82.8H510.061V110.4H538.661V125.4H510.061ZM615.113 108.4C623.379 108.4 630.846 110.2 637.513 113.8C644.179 117.267 649.379 122.533 653.113 129.6C656.979 136.667 658.913 145.267 658.913 155.4V220H640.913V158C640.913 147.067 638.179 138.733 632.713 133C627.246 127.133 619.779 124.2 610.313 124.2C600.713 124.2 593.046 127.2 587.313 133.2C581.713 139.2 578.913 147.933 578.913 159.4V220H560.713V72H578.913V126C582.513 120.4 587.446 116.067 593.713 113C600.113 109.933 607.246 108.4 615.113 108.4ZM891.217 128.2C894.417 121.933 898.951 117.067 904.817 113.6C910.817 110.133 918.084 108.4 926.617 108.4V127.2H921.817C901.417 127.2 891.217 138.267 891.217 160.4V220H873.017V110.4H891.217V128.2ZM1047.63 161C1047.63 164.467 1047.43 168.133 1047.03 172H959.427C960.093 182.8 963.76 191.267 970.427 197.4C977.227 203.4 985.427 206.4 995.027 206.4C1002.89 206.4 1009.43 204.6 1014.63 201C1019.96 197.267 1023.69 192.333 1025.83 186.2H1045.43C1042.49 196.733 1036.63 205.333 1027.83 212C1019.03 218.533 1008.09 221.8 995.027 221.8C984.627 221.8 975.293 219.467 967.027 214.8C958.893 210.133 952.493 203.533 947.827 195C943.16 186.333 940.827 176.333 940.827 165C940.827 153.667 943.093 143.733 947.627 135.2C952.16 126.667 958.493 120.133 966.627 115.6C974.893 110.933 984.36 108.6 995.027 108.6C1005.43 108.6 1014.63 110.867 1022.63 115.4C1030.63 119.933 1036.76 126.2 1041.03 134.2C1045.43 142.067 1047.63 151 1047.63 161ZM1028.83 157.2C1028.83 150.267 1027.29 144.333 1024.23 139.4C1021.16 134.333 1016.96 130.533 1011.63 128C1006.43 125.333 1000.63 124 994.227 124C985.027 124 977.16 126.933 970.627 132.8C964.227 138.667 960.56 146.8 959.627 157.2H1028.83Z" fill="url(#paint0_linear_27_25)"/>
<path d="M681.842 164.8C681.842 153.6 684.109 143.8 688.642 135.4C693.176 126.867 699.376 120.267 707.242 115.6C715.242 110.933 724.109 108.6 733.842 108.6C743.442 108.6 751.776 110.667 758.842 114.8C765.909 118.933 771.176 124.133 774.642 130.4V110.4H793.042V220H774.642V199.6C771.042 206 765.642 211.333 758.442 215.6C751.376 219.733 743.109 221.8 733.642 221.8C723.909 221.8 715.109 219.4 707.242 214.6C699.376 209.8 693.176 203.067 688.642 194.4C684.109 185.733 681.842 175.867 681.842 164.8ZM774.642 165C774.642 156.733 772.976 149.533 769.642 143.4C766.309 137.267 761.776 132.6 756.042 129.4C750.442 126.067 744.242 124.4 737.442 124.4C730.642 124.4 724.442 126 718.842 129.2C713.242 132.4 708.776 137.067 705.442 143.2C702.109 149.333 700.442 156.533 700.442 164.8C700.442 173.2 702.109 180.533 705.442 186.8C708.776 192.933 713.242 197.667 718.842 201C724.442 204.2 730.642 205.8 737.442 205.8C744.242 205.8 750.442 204.2 756.042 201C761.776 197.667 766.309 192.933 769.642 186.8C772.976 180.533 774.642 173.267 774.642 165ZM833.198 92.6C829.732 92.6 826.798 91.4 824.398 89C821.998 86.6 820.798 83.6667 820.798 80.2C820.798 76.7333 821.998 73.8 824.398 71.4C826.798 69 829.732 67.8 833.198 67.8C836.532 67.8 839.332 69 841.598 71.4C843.998 73.8 845.198 76.7333 845.198 80.2C845.198 83.6667 843.998 86.6 841.598 89C839.332 91.4 836.532 92.6 833.198 92.6ZM841.998 110.4V220H823.798V110.4H841.998Z" fill="url(#paint1_linear_27_25)"/>
<defs>
<linearGradient id="paint0_linear_27_25" x1="-3.82615e-07" y1="167.591" x2="1128" y2="164.101" gradientUnits="userSpaceOnUse">
<stop stop-color="#1652F0" stop-opacity="0.88"/>
<stop offset="1" stop-color="#1A89E0" stop-opacity="0.44"/>
</linearGradient>
<linearGradient id="paint1_linear_27_25" x1="-3.82615e-07" y1="167.591" x2="1128" y2="164.101" gradientUnits="userSpaceOnUse">
<stop stop-color="#16F053" stop-opacity="0.88"/>
<stop offset="1" stop-color="#1A89E0" stop-opacity="0.44"/>
</linearGradient>
</defs>
</svg>
