<svg width="893" height="135" viewBox="0 0 893 135" fill="none" xmlns="http://www.w3.org/2000/svg">
<path d="M66.2 63.2C63.8 71.6 61.2 80 58.4 88.4C55.7333 96.8 53.1333 104.667 50.6 112C48.0667 119.333 45.7333 125.667 43.6 131C42.5333 131.667 41.3333 132.2 40 132.6C38.6667 133 36.8667 133.2 34.6 133.2C32.4667 133.2 30.4667 132.8 28.6 132C26.8667 131.333 25.6667 130.2 25 128.6C23.6667 125.933 22.1333 122.067 20.4 117C18.8 111.933 17.0667 106.133 15.2 99.6C13.4667 93.0667 11.6667 86.3333 9.8 79.4C7.93333 72.3333 6.2 65.5333 4.6 59C3.13333 52.4667 1.86667 46.6667 0.8 41.6C1.73333 40.6667 2.86667 39.8 4.2 39C5.66667 38.2 7.4 37.8 9.4 37.8C11.9333 37.8 13.8 38.5333 15 40C16.3333 41.3333 17.2667 43.5333 17.8 46.6C19 52.2 20.3333 58.5333 21.8 65.6C23.4 72.6667 25 79.6667 26.6 86.6C28.3333 93.5333 29.8667 99.8 31.2 105.4C32.6667 110.867 33.7333 114.933 34.4 117.6H35.2C36.2667 114.4 37.9333 109.2 40.2 102C42.4667 94.6667 45.1333 86.3333 48.2 77C51.4 67.6667 54.6 58.2 57.8 48.6C58.8667 47.9333 60.1333 47.4667 61.6 47.2C63.0667 46.8 64.6667 46.6 66.4 46.6C68.8 46.6 70.8 47.0667 72.4 48C74 48.8 75.0667 50.0667 75.6 51.8C78.8 61 81.8 70.0667 84.6 79C87.4 87.8 89.8667 95.6667 92 102.6C94.1333 109.4 95.6667 114.467 96.6 117.8H97.6C100.667 105.933 104 93.2 107.6 79.6C111.2 66 114.133 52.6667 116.4 39.6C118.267 38.4 120.533 37.8 123.2 37.8C125.467 37.8 127.267 38.3333 128.6 39.4C129.933 40.4667 130.6 42.1333 130.6 44.4C130.6 45.8667 130.133 48.6667 129.2 52.8C128.4 56.9333 127.267 61.8 125.8 67.4C124.333 73 122.667 79 120.8 85.4C119.067 91.6667 117.267 97.8 115.4 103.8C113.533 109.667 111.733 115 110 119.8C108.4 124.6 107 128.333 105.8 131C105.133 131.533 104 132 102.4 132.4C100.933 132.933 99.2 133.2 97.2 133.2C91.7333 133.2 88.5333 131.933 87.6 129.4C85.7333 124.6 83.6 118.667 81.2 111.6C78.8 104.4 76.3333 96.6667 73.8 88.4C71.2667 80 68.7333 71.6 66.2 63.2ZM157.55 96L156.75 83.4L217.15 75.2C216.617 67.8667 214.083 61.8667 209.55 57.2C205.017 52.4 198.75 50 190.75 50C182.483 50 175.617 53 170.15 59C164.817 64.8667 162.15 73.3333 162.15 84.4V88.8C163.083 99.4667 166.55 107.6 172.55 113.2C178.683 118.667 187.017 121.4 197.55 121.4C203.15 121.4 208.217 120.467 212.75 118.6C217.283 116.733 220.883 114.733 223.55 112.6C225.017 113.533 226.15 114.667 226.95 116C227.883 117.2 228.35 118.6 228.35 120.2C228.35 122.733 226.883 125.133 223.95 127.4C221.15 129.533 217.35 131.267 212.55 132.6C207.883 133.933 202.617 134.6 196.75 134.6C186.483 134.6 177.55 132.733 169.95 129C162.483 125.267 156.683 119.733 152.55 112.4C148.55 104.933 146.55 95.8667 146.55 85.2C146.55 77.6 147.617 70.8667 149.75 65C152.017 59 155.083 53.9333 158.95 49.8C162.95 45.6667 167.683 42.5333 173.15 40.4C178.617 38.1333 184.55 37 190.95 37C199.083 37 206.217 38.7333 212.35 42.2C218.617 45.6667 223.483 50.5333 226.95 56.8C230.55 62.9333 232.35 70 232.35 78C232.35 80.9333 231.683 83.0667 230.35 84.4C229.017 85.6 227.15 86.3333 224.75 86.6L157.55 96ZM288.461 121.6C294.061 121.6 298.661 121.067 302.261 120C305.994 118.8 308.661 117.667 310.261 116.6V87.6L285.461 90.2C278.528 90.7333 273.394 92.2667 270.061 94.8C266.728 97.3333 265.061 101 265.061 105.8C265.061 110.733 266.994 114.6 270.861 117.4C274.861 120.2 280.728 121.6 288.461 121.6ZM288.261 37C299.861 37 309.061 39.6 315.861 44.8C322.661 50 326.061 58.2 326.061 69.4V116.8C326.061 119.733 325.461 122 324.261 123.6C323.194 125.067 321.528 126.467 319.261 127.8C316.061 129.533 311.794 131.133 306.461 132.6C301.128 134.067 295.128 134.8 288.461 134.8C275.928 134.8 266.194 132.333 259.261 127.4C252.461 122.467 249.061 115.333 249.061 106C249.061 97.3333 251.928 90.7333 257.661 86.2C263.528 81.5333 271.594 78.7333 281.861 77.8L310.261 75V69.4C310.261 62.7333 308.261 57.8667 304.261 54.8C300.261 51.7333 294.861 50.2 288.061 50.2C282.594 50.2 277.328 51 272.261 52.6C267.328 54.2 262.928 56 259.061 58C257.994 57.0667 256.994 56 256.061 54.8C255.261 53.4667 254.861 52.1333 254.861 50.8C254.861 47.3333 256.794 44.6667 260.661 42.8C264.261 40.9333 268.394 39.5333 273.061 38.6C277.861 37.5333 282.928 37 288.261 37ZM356.866 79.2L372.866 81.6V131.6C372.199 131.867 371.199 132.133 369.866 132.4C368.532 132.8 367.066 133 365.466 133C362.666 133 360.532 132.467 359.066 131.4C357.599 130.2 356.866 128.333 356.866 125.8V79.2ZM372.866 89.2L356.866 87V2.4C357.532 2.13333 358.532 1.86666 359.866 1.6C361.332 1.2 362.799 0.999994 364.266 0.999994C367.199 0.999994 369.332 1.59999 370.666 2.79999C372.132 3.86666 372.866 5.66666 372.866 8.2V89.2ZM404.684 79.2H420.684V106.8C420.684 112.133 422.218 115.933 425.284 118.2C428.351 120.333 432.551 121.4 437.884 121.4C440.151 121.4 442.684 121 445.484 120.2C448.284 119.4 450.618 118.467 452.484 117.4C453.284 118.2 454.018 119.2 454.684 120.4C455.351 121.6 455.684 123 455.684 124.6C455.684 127.533 453.951 129.933 450.484 131.8C447.018 133.667 442.218 134.6 436.084 134.6C426.751 134.6 419.151 132.533 413.284 128.4C407.551 124.267 404.684 117.4 404.684 107.8V79.2ZM412.884 54.8V41.6H453.484C453.884 42.1333 454.284 43 454.684 44.2C455.084 45.4 455.284 46.6667 455.284 48C455.284 50.1333 454.751 51.8 453.684 53C452.618 54.2 451.151 54.8 449.284 54.8H412.884ZM420.684 85.2H404.684V12.8C405.351 12.5333 406.351 12.2667 407.684 12C409.151 11.6 410.684 11.4 412.284 11.4C415.084 11.4 417.151 12 418.484 13.2C419.951 14.2667 420.684 16.0667 420.684 18.6V85.2ZM559.098 92.2H543.098V73.8C543.098 65.8 540.832 59.8667 536.298 56C531.898 52.1333 526.165 50.2 519.098 50.2C513.898 50.2 509.032 51.2 504.498 53.2C500.098 55.2 496.365 57.6 493.298 60.4L490.298 47.4C493.498 45.1333 497.698 42.8667 502.898 40.6C508.232 38.2 514.365 37 521.298 37C532.365 37 541.432 40 548.498 46C555.565 52 559.098 61.1333 559.098 73.4V92.2ZM479.298 79.2H495.298V131.6C494.632 131.867 493.632 132.133 492.298 132.4C490.965 132.8 489.498 133 487.898 133C485.098 133 482.965 132.467 481.498 131.4C480.032 130.2 479.298 128.333 479.298 125.8V79.2ZM543.098 79.4L559.098 79.6V131.6C558.432 131.867 557.365 132.133 555.898 132.4C554.565 132.8 553.165 133 551.698 133C548.765 133 546.565 132.467 545.098 131.4C543.765 130.2 543.098 128.333 543.098 125.8V79.4ZM495.298 87H479.298V2.4C479.965 2.13333 480.965 1.86666 482.298 1.6C483.765 1.2 485.298 0.999994 486.898 0.999994C489.698 0.999994 491.765 1.59999 493.098 2.79999C494.565 3.86666 495.298 5.66666 495.298 8.2V87ZM753.102 56.8V88.4H737.102V58C737.102 54.9333 737.635 52.5333 738.702 50.8C739.902 48.9333 741.835 47.1333 744.502 45.4C747.968 43.1333 752.702 41.2 758.702 39.6C764.702 37.8667 771.368 37 778.702 37C789.368 37 794.702 39.6667 794.702 45C794.702 46.3333 794.502 47.6 794.102 48.8C793.702 49.8667 793.168 50.8 792.502 51.6C791.168 51.3333 789.435 51.0667 787.302 50.8C785.168 50.5333 783.035 50.4 780.902 50.4C774.768 50.4 769.368 51.0667 764.702 52.4C760.035 53.6 756.168 55.0667 753.102 56.8ZM737.102 79.2L753.102 81.6V131.6C752.435 131.867 751.435 132.133 750.102 132.4C748.768 132.8 747.302 133 745.702 133C742.902 133 740.768 132.467 739.302 131.4C737.835 130.2 737.102 128.333 737.102 125.8V79.2ZM817.316 96L816.516 83.4L876.916 75.2C876.382 67.8667 873.849 61.8667 869.316 57.2C864.782 52.4 858.516 50 850.516 50C842.249 50 835.382 53 829.916 59C824.582 64.8667 821.916 73.3333 821.916 84.4V88.8C822.849 99.4667 826.316 107.6 832.316 113.2C838.449 118.667 846.782 121.4 857.316 121.4C862.916 121.4 867.982 120.467 872.516 118.6C877.049 116.733 880.649 114.733 883.316 112.6C884.782 113.533 885.916 114.667 886.716 116C887.649 117.2 888.116 118.6 888.116 120.2C888.116 122.733 886.649 125.133 883.716 127.4C880.916 129.533 877.116 131.267 872.316 132.6C867.649 133.933 862.382 134.6 856.516 134.6C846.249 134.6 837.316 132.733 829.716 129C822.249 125.267 816.449 119.733 812.316 112.4C808.316 104.933 806.316 95.8667 806.316 85.2C806.316 77.6 807.382 70.8667 809.516 65C811.782 59 814.849 53.9333 818.716 49.8C822.716 45.6667 827.449 42.5333 832.916 40.4C838.382 38.1333 844.316 37 850.716 37C858.849 37 865.982 38.7333 872.116 42.2C878.382 45.6667 883.249 50.5333 886.716 56.8C890.316 62.9333 892.116 70 892.116 78C892.116 80.9333 891.449 83.0667 890.116 84.4C888.782 85.6 886.916 86.3333 884.516 86.6L817.316 96Z" fill="url(#paint0_linear_1_10)"/>
<path d="M622.055 121.6C627.655 121.6 632.255 121.067 635.855 120C639.588 118.8 642.255 117.667 643.855 116.6V87.6L619.055 90.2C612.121 90.7333 606.988 92.2667 603.655 94.8C600.321 97.3333 598.655 101 598.655 105.8C598.655 110.733 600.588 114.6 604.455 117.4C608.455 120.2 614.321 121.6 622.055 121.6ZM621.855 37C633.455 37 642.655 39.6 649.455 44.8C656.255 50 659.655 58.2 659.655 69.4V116.8C659.655 119.733 659.055 122 657.855 123.6C656.788 125.067 655.121 126.467 652.855 127.8C649.655 129.533 645.388 131.133 640.055 132.6C634.721 134.067 628.721 134.8 622.055 134.8C609.521 134.8 599.788 132.333 592.855 127.4C586.055 122.467 582.655 115.333 582.655 106C582.655 97.3333 585.521 90.7333 591.255 86.2C597.121 81.5333 605.188 78.7333 615.455 77.8L643.855 75V69.4C643.855 62.7333 641.855 57.8667 637.855 54.8C633.855 51.7333 628.455 50.2 621.655 50.2C616.188 50.2 610.921 51 605.855 52.6C600.921 54.2 596.521 56 592.655 58C591.588 57.0667 590.588 56 589.655 54.8C588.855 53.4667 588.455 52.1333 588.455 50.8C588.455 47.3333 590.388 44.6667 594.255 42.8C597.855 40.9333 601.988 39.5333 606.655 38.6C611.455 37.5333 616.521 37 621.855 37ZM687.459 10.4C687.459 7.6 688.459 5.26667 690.459 3.4C692.459 1.39999 694.926 0.39999 697.859 0.39999C700.926 0.39999 703.393 1.39999 705.259 3.4C707.126 5.26667 708.059 7.6 708.059 10.4C708.059 13.2 707.126 15.6 705.259 17.6C703.393 19.4667 700.926 20.4 697.859 20.4C694.926 20.4 692.459 19.4667 690.459 17.6C688.459 15.6 687.459 13.2 687.459 10.4ZM689.859 79.2H705.859V131.6C705.193 131.867 704.193 132.133 702.859 132.4C701.526 132.8 700.059 133 698.459 133C695.659 133 693.526 132.467 692.059 131.4C690.593 130.2 689.859 128.333 689.859 125.8V79.2ZM705.859 87H689.859V40C690.526 39.7333 691.526 39.4667 692.859 39.2C694.326 38.8 695.859 38.6 697.459 38.6C700.259 38.6 702.326 39.2 703.659 40.4C705.126 41.4667 705.859 43.3333 705.859 46V87Z" fill="url(#paint1_linear_1_10)"/>
<defs>
<linearGradient id="paint0_linear_1_10" x1="-7" y1="84.5913" x2="923.001" y2="82.2187" gradientUnits="userSpaceOnUse">
<stop stop-color="#1652F0" stop-opacity="0.88"/>
<stop offset="1" stop-color="#1A89E0" stop-opacity="0.44"/>
</linearGradient>
<linearGradient id="paint1_linear_1_10" x1="-7" y1="84.5913" x2="923.001" y2="82.2187" gradientUnits="userSpaceOnUse">
<stop stop-color="#16F053" stop-opacity="0.88"/>
<stop offset="1" stop-color="#1A89E0" stop-opacity="0.44"/>
</linearGradient>
</defs>
</svg>
